<svg xmlns="http://www.w3.org/2000/svg" viewBox="0 0 600 400" width="600" height="400" role="img" shape-rendering="crispEdges"><defs><pattern id="d-typography-0" width="4" height="4" patternUnits="userSpaceOnUse" fill="#c2417f"></pattern><pattern id="d-typography-1" width="4" height="4" patternUnits="userSpaceOnUse" fill="#c2417f"><rect x="0" y="0" width="1" height="1"/></pattern><pattern id="d-typography-2" width="4" height="4" patternUnits="userSpaceOnUse" fill="#c2417f"><rect x="0" y="0" width="1" height="1"/><rect x="2" y="2" width="1" height="1"/></pattern><pattern id="d-typography-3" width="4" height="4" patternUnits="userSpaceOnUse" fill="#c2417f"><rect x="0" y="0" width="1" height="1"/><rect x="2" y="0" width="1" height="1"/><rect x="2" y="2" width="1" height="1"/></pattern><pattern id="d-typography-4" width="4" height="4" patternUnits="userSpaceOnUse" fill="#c2417f"><rect x="0" y="0" width="1" height="1"/><rect x="2" y="0" width="1" height="1"/><rect x="1" y="1" width="1" height="1"/><rect x="0" y="2" width="1" height="1"/><rect x="2" y="2" width="1" height="1"/></pattern><pattern id="d-typography-5" width="4" height="4" patternUnits="userSpaceOnUse" fill="#c2417f"><rect x="0" y="0" width="1" height="1"/><rect x="2" y="0" width="1" height="1"/><rect x="1" y="1" width="1" height="1"/><rect x="3" y="1" width="1" height="1"/><rect x="0" y="2" width="1" height="1"/><rect x="2" y="2" width="1" height="1"/><rect x="3" y="3" width="1" height="1"/></pattern><pattern id="d-typography-6" width="4" height="4" patternUnits="userSpaceOnUse" fill="#c2417f"><rect x="0" y="0" width="1" height="1"/><rect x="1" y="0" width="1" height="1"/><rect x="2" y="0" width="1" height="1"/><rect x="1" y="1" width="1" height="1"/><rect x="3" y="1" width="1" height="1"/><rect x="0" y="2" width="1" height="1"/><rect x="2" y="2" width="1" height="1"/><rect x="1" y="3" width="1" height="1"/><rect x="3" y="3" width="1" height="1"/></pattern><pattern id="d-typography-7" width="4" height="4" patternUnits="userSpaceOnUse" fill="#c2417f"><rect x="0" y="0" width="1" height="1"/><rect x="1" y="0" width="1" height="1"/><rect x="2" y="0" width="1" height="1"/><rect x="3" y="0" width="1" height="1"/><rect x="1" y="1" width="1" height="1"/><rect x="3" y="1" width="1" height="1"/><rect x="0" y="2" width="1" height="1"/><rect x="1" y="2" width="1" height="1"/><rect x="2" y="2" width="1" height="1"/><rect x="3" y="2" width="1" height="1"/><rect x="1" y="3" width="1" height="1"/><rect x="3" y="3" width="1" height="1"/></pattern><pattern id="d-typography-8" width="4" height="4" patternUnits="userSpaceOnUse" fill="#c2417f"><rect x="0" y="0" width="1" height="1"/><rect x="1" y="0" width="1" height="1"/><rect x="2" y="0" width="1" height="1"/><rect x="3" y="0" width="1" height="1"/><rect x="0" y="1" width="1" height="1"/><rect x="1" y="1" width="1" height="1"/><rect x="2" y="1" width="1" height="1"/><rect x="3" y="1" width="1" height="1"/><rect x="0" y="2" width="1" height="1"/><rect x="1" y="2" width="1" height="1"/><rect x="2" y="2" width="1" height="1"/><rect x="3" y="2" width="1" height="1"/><rect x="0" y="3" width="1" height="1"/><rect x="1" y="3" width="1" height="1"/><rect x="2" y="3" width="1" height="1"/><rect x="3" y="3" width="1" height="1"/></pattern></defs><rect width="600" height="400" fill="#5c0a3a"/><rect x="0" y="0" width="600" height="45" fill="url(#d-typography-0)"/><rect x="0" y="45" width="600" height="45" fill="url(#d-typography-1)"/><rect x="0" y="90" width="600" height="45" fill="url(#d-typography-2)"/><rect x="0" y="135" width="600" height="45" fill="url(#d-typography-3)"/><rect x="0" y="180" width="600" height="45" fill="url(#d-typography-4)"/><rect x="0" y="225" width="600" height="45" fill="url(#d-typography-5)"/><rect x="0" y="270" width="600" height="45" fill="url(#d-typography-6)"/><rect x="0" y="315" width="600" height="45" fill="url(#d-typography-7)"/><rect x="0" y="360" width="600" height="45" fill="url(#d-typography-8)"/><rect x="196" y="152" width="34" height="34" fill="#ffd9ec" opacity="0.35"/><rect x="196" y="196" width="34" height="34" fill="#ffd9ec" opacity="0.63"/><rect x="196" y="240" width="34" height="34" fill="#ffd9ec" opacity="0.91"/><rect x="240" y="152" width="34" height="34" fill="#ffd9ec" opacity="0.63"/><rect x="240" y="196" width="34" height="34" fill="#ffd9ec" opacity="0.91"/><rect x="240" y="240" width="34" height="34" fill="#ffd9ec" opacity="0.35"/><rect x="284" y="152" width="34" height="34" fill="#ffd9ec" opacity="0.91"/><rect x="284" y="196" width="34" height="34" fill="#ffd9ec" opacity="0.35"/><rect x="284" y="240" width="34" height="34" fill="#ffd9ec" opacity="0.63"/><rect x="328" y="152" width="34" height="34" fill="#ffd9ec" opacity="0.35"/><rect x="328" y="196" width="34" height="34" fill="#ffd9ec" opacity="0.63"/><rect x="328" y="240" width="34" height="34" fill="#ffd9ec" opacity="0.91"/><rect x="372" y="152" width="34" height="34" fill="#ffd9ec" opacity="0.63"/><rect x="372" y="196" width="34" height="34" fill="#ffd9ec" opacity="0.91"/><rect x="372" y="240" width="34" height="34" fill="#ffd9ec" opacity="0.35"/>
  <rect x="0" y="0" width="600" height="4" fill="#ffffff" opacity="0.75"/>
  <rect x="0" y="0" width="4" height="400" fill="#ffffff" opacity="0.75"/>
  <rect x="0" y="396" width="600" height="4" fill="#000000" opacity="0.55"/>
  <rect x="596" y="0" width="4" height="400" fill="#000000" opacity="0.55"/></svg>